{"title":"Picture (Holland) - Live 81 and More DVD","uid":6878541,"size":791691593,"categoryP":"video","categoryS":"music_videos","magnet":"?xt=urn:btih:a45369c9e98f56f7fc4be73e672a3d8d1faadb5a&amp;dn=Picture+%28Holland%29+-+Live+81+and+More+DVD&amp;tr=udp%3A%2F%2Ftracker.openbittorrent.com%3A80&amp;tr=udp%3A%2F%2Fopen.demonii.com%3A1337&amp;tr=udp%3A%2F%2Ftracker.coppersurfer.tk%3A6969&amp;tr=udp%3A%2F%2Fexodus.desync.com%3A6969","seeders":2,"leechers":0,"uploader":"thumbsplus","files":7,"time":1323551478,"description":"Picture (Holland) - Live 81 and More DVD\n\na very nice dvd\nI have received this in a trade\n\nthe band is currently active, please buy their albums and merchandise\n\ncover is included in the torrent\n\n\n\ncover is included in the torrent\n\nBombers ( Live 80)\nWatchout ( Live 81)\nHeavy Metal Ears ( Live 81 )\nSimple Man ( Live 81 )\nBombers ( Live 81 )\nYou Can Go ( Live 81 )\nLive in Rotterdam ( unknown date )\nWe just canÃ‚Â´t Loose ( TV 86 )\n\nTotal time : 30 minutes\n\nany additional info is welcome\n\nIÃ‚Â´m looking for some footage of the Eternal Dark era .. is there any ?\n\neneral\nComplete name : C:\\Picture DVD\\Picture (Holland) - Live 81 and More DVD\\video_ts\\VTS_01_1.VOB\nFormat : MPEG-PS\nFile size : 754 MiB\nDuration : 2mn 44s\nOverall bit rate mode : Variable\nOverall bit rate : 38.5 Mbps\n\nVideo\nID : 224 (0xE0)\nFormat : MPEG Video\nFormat version : Version 2\nFormat profile : Main@Main\nFormat settings, BVOP : Yes\nFormat settings, Matrix : Default\nDuration : 2mn 44s\nBit rate mode : Variable\nBit rate : 37.5 Mbps\nWidth : 720 pixels\nHeight : 480 pixels\nDisplay aspect ratio : 4:3\nFrame rate : 29.970 fps\nStandard : NTSC\nColor space : YUV\nChroma subsampling : 4:2:0\nBit depth : 8 bits\nScan type : Progressive\nCompression mode : Lossy\nBits/(Pixel*Frame) : 3.620\nStream size : 735 MiB (98%)\n\nAudio\nID : 189 (0xBD)-128 (0x80)\nFormat : AC-3\nFormat/Info : Audio Coding 3\nMode extension : CM (complete main)\nMuxing mode : DVD-Video\nDuration : 2mn 44s\nBit rate mode : Constant\nBit rate : 192 Kbps\nChannel(s) : 2 channels\nChannel positions : Front: L R\nSampling rate : 48.0 KHz\nBit depth : 16 bits\nCompression mode : Lossy\nStream size : 3.76 MiB (0%)","torrent":{"xt":"urn:btih:a45369c9e98f56f7fc4be73e672a3d8d1faadb5a","amp;dn":"Picture+%28Holland%29+-+Live+81+and+More+DVD","amp;tr":["udp%3A%2F%2Ftracker.openbittorrent.com%3A80","udp%3A%2F%2Fopen.demonii.com%3A1337","udp%3A%2F%2Ftracker.coppersurfer.tk%3A6969","udp%3A%2F%2Fexodus.desync.com%3A6969"],"infoHash":"a45369c9e98f56f7fc4be73e672a3d8d1faadb5a","infoHashBuffer":{"type":"Buffer","data":[164,83,105,201,233,143,86,247,252,75,231,62,103,42,61,141,31,170,219,90]},"announce":[],"urlList":[]}}